<svg xmlns="http://www.w3.org/2000/svg" xmlns:xlink="http://www.w3.org/1999/xlink" width="840" height="602.75"><rect width="840" height="602.75" rx="5" ry="5" class="a"/><svg y="0%" x="0%"><circle cx="20" cy="20" r="6" fill="#ff5f58"/><circle cx="40" cy="20" r="6" fill="#ffbd2e"/><circle cx="60" cy="20" r="6" fill="#18c132"/></svg><svg height="542.75" viewBox="0 0 80 54.275" width="800" x="15" xmlns="http://www.w3.org/2000/svg" xmlns:xlink="http://www.w3.org/1999/xlink" y="50"><style>@keyframes k{0%{transform:translateX(0)}2.99%{transform:translateX(-160px)}5.19%{transform:translateX(-240px)}5.26%{transform:translateX(-320px)}5.66%{transform:translateX(-400px)}5.98%{transform:translateX(-480px)}6.14%{transform:translateX(-560px)}8.1%{transform:translateX(-640px)}8.67%{transform:translateX(-720px)}8.84%{transform:translateX(-800px)}9.42%{transform:translateX(-880px)}9.53%{transform:translateX(-960px)}9.8%{transform:translateX(-1040px)}10.87%{transform:translateX(-1120px)}11.36%{transform:translateX(-1200px)}11.6%{transform:translateX(-1280px)}11.87%{transform:translateX(-1360px)}12.32%{transform:translateX(-1440px)}12.5%{transform:translateX(-1520px)}14.88%{transform:translateX(-1600px)}15.65%{transform:translateX(-1680px)}16.2%{transform:translateX(-1760px)}17.3%{transform:translateX(-1840px)}17.43%{transform:translateX(-1920px)}17.86%{transform:translateX(-2000px)}18.27%{transform:translateX(-2080px)}19.98%{transform:translateX(-2160px)}20.44%{transform:translateX(-2240px)}20.82%{transform:translateX(-2320px)}22.78%{transform:translateX(-2400px)}26.18%{transform:translateX(-2480px)}27.39%{transform:translateX(-2560px)}28.95%{transform:translateX(-2640px)}30.92%{transform:translateX(-2720px)}31.16%{transform:translateX(-2800px)}31.76%{transform:translateX(-2880px)}32.5%{transform:translateX(-2960px)}32.77%{transform:translateX(-3040px)}32.99%{transform:translateX(-3120px)}33.37%{transform:translateX(-3200px)}35.06%{transform:translateX(-3280px)}35.69%{transform:translateX(-3360px)}35.78%{transform:translateX(-3440px)}36.56%{transform:translateX(-3520px)}39.08%{transform:translateX(-3600px)}39.14%{transform:translateX(-3840px)}39.16%{transform:translateX(-3920px)}39.17%{transform:translateX(-4000px)}45.76%{transform:translateX(-4080px)}45.79%{transform:translateX(-4240px)}52.06%{transform:translateX(-4320px)}52.09%{transform:translateX(-4480px)}60.38%{transform:translateX(-4560px)}60.41%{transform:translateX(-4720px)}70.81%{transform:translateX(-4800px)}70.83%{transform:translateX(-4880px)}70.84%{transform:translateX(-4960px)}81.86%{transform:translateX(-5040px)}81.89%{transform:translateX(-5200px)}94.41%{transform:translateX(-5520px)}to{transform:translateX(-5600px)}}.a{fill:#282d35}.h{fill:#b9c0cb;white-space:pre}</style><g font-family="Monaco,Consolas,Menlo,'Bitstream Vera Sans Mono','Powerline Symbols',monospace" font-size="1.67"><defs><symbol id="1"><path fill="#b9c0cb" d="M0 0h1v2.171H0z"/><text y="1.67" style="white-space:pre" fill="#282d35" font-weight="700">%</text></symbol><symbol id="2"><text y="1.67" class="h">$</text></symbol><symbol id="3"><text y="1.67" class="h">$</text><text x="2.004" y="1.67" class="h">./ffmpeg-video-slicer.sh</text><text x="27.054" y="1.67" class="h">-i</text></symbol><symbol id="4"><text y="1.67" class="h">$</text><text x="2.004" y="1.67" class="h">./ffmpeg-video-slicer.sh</text><text x="27.054" y="1.67" class="h">-i</text><text x="30.06" y="1.67" class="h">input.mp4</text><text x="40.08" y="1.67" class="h">-s</text></symbol><symbol id="5"><text y="1.67" class="h">$</text><text x="2.004" y="1.67" class="h">./ffmpeg-video-slicer.sh</text><text x="27.054" y="1.67" class="h">-i</text><text x="30.06" y="1.67" class="h">input.mp4</text><text x="40.08" y="1.67" class="h">-s</text><text x="43.086" y="1.67" class="h">scenes.txt</text><text x="54.108" y="1.67" class="h">-o</text></symbol><symbol id="6"><text y="1.67" class="h">$</text><text x="2.004" y="1.67" class="h">./ffmpeg-video-slicer.sh</text><text x="27.054" y="1.67" class="h">-i</text><text x="30.06" y="1.67" class="h">input.mp4</text><text x="40.08" y="1.67" class="h">-s</text><text x="43.086" y="1.67" class="h">scenes.txt</text><text x="54.108" y="1.67" class="h">-o</text><text x="57.114" y="1.67" class="h">out</text></symbol><symbol id="7"><text y="1.67" class="h">$</text><text x="2.004" y="1.67" class="h">./ffmpeg-video-slicer.sh</text><text x="27.054" y="1.67" class="h">-i</text><text x="30.06" y="1.67" class="h">input.mp4</text><text x="40.08" y="1.67" class="h">-s</text><text x="43.086" y="1.67" class="h">scenes.txt</text><text x="54.108" y="1.67" class="h">-o</text><text x="57.114" y="1.67" class="h">output-%0</text></symbol><symbol id="8"><text y="1.67" class="h">$</text><text x="2.004" y="1.67" class="h">./ffmpeg-video-slicer.sh</text><text x="27.054" y="1.67" class="h">-i</text><text x="30.06" y="1.67" class="h">input.mp4</text><text x="40.08" y="1.67" class="h">-s</text><text x="43.086" y="1.67" class="h">scenes.txt</text><text x="54.108" y="1.67" class="h">-o</text><text x="57.114" y="1.67" class="h">output-%03</text></symbol><symbol id="9"><text y="1.67" class="h">$</text><text x="2.004" y="1.67" class="h">./ffmpeg-video-slicer.sh</text><text x="27.054" y="1.67" class="h">-i</text><text x="30.06" y="1.67" class="h">input.mp4</text><text x="40.08" y="1.67" class="h">-s</text><text x="43.086" y="1.67" class="h">scenes.txt</text><text x="54.108" y="1.67" class="h">-o</text><text x="57.114" y="1.67" class="h">output-%02d.mp4</text></symbol><symbol id="10"><text y="1.67" class="h">./ffmpeg-video-slicer.sh</text><text x="25.05" y="1.67" class="h">with</text><text x="30.06" y="1.67" class="h">params:</text></symbol><symbol id="11"><text x="2.004" y="1.67" class="h">Input</text><text x="8.016" y="1.67" class="h">file:</text><text x="14.028" y="1.67" class="h">input.mp4</text></symbol><symbol id="12"><text x="2.004" y="1.67" class="h">Scenes</text><text x="9.018" y="1.67" class="h">file:</text><text x="15.03" y="1.67" class="h">scenes.txt</text></symbol><symbol id="13"><text x="2.004" y="1.67" class="h">Audio</text><text x="8.016" y="1.67" class="h">lang:</text></symbol><symbol id="14"><text x="2.004" y="1.67" class="h">Language</text><text x="11.022" y="1.67" class="h">options:</text><text x="20.04" y="1.67" class="h">-map</text><text x="25.05" y="1.67" class="h">0:a:m:language:eng</text></symbol><symbol id="15"><text x="2.004" y="1.67" class="h">Verbose:</text></symbol><symbol id="16"><text x="2.004" y="1.67" class="h">Output</text><text x="9.018" y="1.67" class="h">file</text><text x="14.028" y="1.67" class="h">pattern:</text><text x="23.046" y="1.67" class="h">output-%02d.mp4</text></symbol><symbol id="17"><text y="1.67" class="h">Loaded</text><text x="7.014" y="1.67" class="h">scenes:</text></symbol><symbol id="18"><text x="2.004" y="1.67" class="h">00:00:00</text><text x="11.022" y="1.67" class="h">00:24:42</text></symbol><symbol id="19"><text x="2.004" y="1.67" class="h">00:24:44</text><text x="11.022" y="1.67" class="h">00:31:04</text></symbol><symbol id="20"><text x="2.004" y="1.67" class="h">00:31:07</text><text x="11.022" y="1.67" class="h">00:53:07</text></symbol><symbol id="21"><text x="2.004" y="1.67" class="h">00:53:09</text><text x="11.022" y="1.67" class="h">01:20:43</text></symbol><symbol id="22"><text x="2.004" y="1.67" class="h">01:20:44.500</text><text x="15.03" y="1.67" class="h">01:44:13</text></symbol><symbol id="23"><text x="2.004" y="1.67" class="h">01:44:15</text><text x="11.022" y="1.67" class="h">02:19:42</text></symbol><symbol id="24"><text y="1.67" class="h">Start:</text><text x="7.014" y="1.67" class="h">00:00:00</text></symbol><symbol id="25"><text y="1.67" class="h">End:</text><text x="5.01" y="1.67" class="h">00:24:42</text></symbol><symbol id="26"><text y="1.67" class="h">Processing</text><text x="11.022" y="1.67" class="h">scene</text><text x="17.034" y="1.67" class="h">01:</text><text x="21.042" y="1.67" class="h">00:00:00</text><text x="30.06" y="1.67" class="h">-&gt;</text><text x="33.066" y="1.67" class="h">00:24:42</text><text x="42.084" y="1.67" class="h">-&gt;</text><text x="45.09" y="1.67" class="h">output-01.mp4</text></symbol><symbol id="27"><text y="1.67" class="h">Processed</text><text x="10.02" y="1.67" class="h">scene</text><text x="16.032" y="1.67" class="h">01:</text><text x="20.04" y="1.67" class="h">00:00:00</text><text x="29.058" y="1.67" class="h">-&gt;</text><text x="32.064" y="1.67" class="h">00:24:42</text><text x="41.082" y="1.67" class="h">-&gt;</text><text x="44.088" y="1.67" class="h">OK</text></symbol><symbol id="28"><text y="1.67" class="h">Start:</text><text x="7.014" y="1.67" class="h">00:24:44</text></symbol><symbol id="29"><text y="1.67" class="h">End:</text><text x="5.01" y="1.67" class="h">00:31:04</text></symbol><symbol id="30"><text y="1.67" class="h">Processing</text><text x="11.022" y="1.67" class="h">scene</text><text x="17.034" y="1.67" class="h">02:</text><text x="21.042" y="1.67" class="h">00:24:44</text><text x="30.06" y="1.67" class="h">-&gt;</text><text x="33.066" y="1.67" class="h">00:31:04</text><text x="42.084" y="1.67" class="h">-&gt;</text><text x="45.09" y="1.67" class="h">output-02.mp4</text></symbol><symbol id="31"><text y="1.67" class="h">Processed</text><text x="10.02" y="1.67" class="h">scene</text><text x="16.032" y="1.67" class="h">02:</text><text x="20.04" y="1.67" class="h">00:24:44</text><text x="29.058" y="1.67" class="h">-&gt;</text><text x="32.064" y="1.67" class="h">00:31:04</text><text x="41.082" y="1.67" class="h">-&gt;</text><text x="44.088" y="1.67" class="h">OK</text></symbol><symbol id="32"><text y="1.67" class="h">Start:</text><text x="7.014" y="1.67" class="h">00:31:07</text></symbol><symbol id="33"><text y="1.67" class="h">End:</text><text x="5.01" y="1.67" class="h">00:53:07</text></symbol><symbol id="34"><text y="1.67" class="h">Processing</text><text x="11.022" y="1.67" class="h">scene</text><text x="17.034" y="1.67" class="h">03:</text><text x="21.042" y="1.67" class="h">00:31:07</text><text x="30.06" y="1.67" class="h">-&gt;</text><text x="33.066" y="1.67" class="h">00:53:07</text><text x="42.084" y="1.67" class="h">-&gt;</text><text x="45.09" y="1.67" class="h">output-03.mp4</text></symbol><symbol id="35"><text y="1.67" class="h">Processed</text><text x="10.02" y="1.67" class="h">scene</text><text x="16.032" y="1.67" class="h">03:</text><text x="20.04" y="1.67" class="h">00:31:07</text><text x="29.058" y="1.67" class="h">-&gt;</text><text x="32.064" y="1.67" class="h">00:53:07</text><text x="41.082" y="1.67" class="h">-&gt;</text><text x="44.088" y="1.67" class="h">OK</text></symbol><symbol id="36"><text y="1.67" class="h">Start:</text><text x="7.014" y="1.67" class="h">00:53:09</text></symbol><symbol id="37"><text y="1.67" class="h">End:</text><text x="5.01" y="1.67" class="h">01:20:43</text></symbol><symbol id="38"><text y="1.67" class="h">Processing</text><text x="11.022" y="1.67" class="h">scene</text><text x="17.034" y="1.67" class="h">04:</text><text x="21.042" y="1.67" class="h">00:53:09</text><text x="30.06" y="1.67" class="h">-&gt;</text><text x="33.066" y="1.67" class="h">01:20:43</text><text x="42.084" y="1.67" class="h">-&gt;</text><text x="45.09" y="1.67" class="h">output-04.mp4</text></symbol><symbol id="39"><text y="1.67" class="h">Processed</text><text x="10.02" y="1.67" class="h">scene</text><text x="16.032" y="1.67" class="h">04:</text><text x="20.04" y="1.67" class="h">00:53:09</text><text x="29.058" y="1.67" class="h">-&gt;</text><text x="32.064" y="1.67" class="h">01:20:43</text><text x="41.082" y="1.67" class="h">-&gt;</text><text x="44.088" y="1.67" class="h">OK</text></symbol><symbol id="40"><text y="1.67" class="h">Start:</text><text x="7.014" y="1.67" class="h">01:20:44.500</text></symbol><symbol id="41"><text y="1.67" class="h">End:</text><text x="5.01" y="1.67" class="h">01:44:13</text></symbol><symbol id="42"><text y="1.67" class="h">Processing</text><text x="11.022" y="1.67" class="h">scene</text><text x="17.034" y="1.67" class="h">05:</text><text x="21.042" y="1.67" class="h">01:20:44.500</text><text x="34.068" y="1.67" class="h">-&gt;</text><text x="37.074" y="1.67" class="h">01:44:13</text><text x="46.092" y="1.67" class="h">-&gt;</text><text x="49.098" y="1.67" class="h">output-05.mp4</text></symbol><symbol id="43"><text y="1.67" class="h">Processed</text><text x="10.02" y="1.67" class="h">scene</text><text x="16.032" y="1.67" class="h">05:</text><text x="20.04" y="1.67" class="h">01:20:44.500</text><text x="33.066" y="1.67" class="h">-&gt;</text><text x="36.072" y="1.67" class="h">01:44:13</text><text x="45.09" y="1.67" class="h">-&gt;</text><text x="48.096" y="1.67" class="h">OK</text></symbol><symbol id="44"><text y="1.67" class="h">Start:</text><text x="7.014" y="1.67" class="h">01:44:15</text></symbol><symbol id="45"><text y="1.67" class="h">End:</text><text x="5.01" y="1.67" class="h">02:19:42</text></symbol><symbol id="46"><text y="1.67" class="h">Processing</text><text x="11.022" y="1.67" class="h">scene</text><text x="17.034" y="1.67" class="h">06:</text><text x="21.042" y="1.67" class="h">01:44:15</text><text x="30.06" y="1.67" class="h">-&gt;</text><text x="33.066" y="1.67" class="h">02:19:42</text><text x="42.084" y="1.67" class="h">-&gt;</text><text x="45.09" y="1.67" class="h">output-06.mp4</text></symbol><symbol id="47"><text y="1.67" class="h">Processed</text><text x="10.02" y="1.67" class="h">scene</text><text x="16.032" y="1.67" class="h">06:</text><text x="20.04" y="1.67" class="h">01:44:15</text><text x="29.058" y="1.67" class="h">-&gt;</text><text x="32.064" y="1.67" class="h">02:19:42</text><text x="41.082" y="1.67" class="h">-&gt;</text><text x="44.088" y="1.67" class="h">OK</text></symbol><symbol id="48"><text y="1.67" class="h">Done!</text><text x="6.012" y="1.67" class="h">Generated</text><text x="16.032" y="1.67" class="h">6</text><text x="18.036" y="1.67" class="h">files.</text></symbol><symbol id="a"><path fill="transparent" d="M0 0h80v26H0z"/></symbol><symbol id="b"><path fill="#6f7683" d="M0 0h1.102v2.171H0z"/></symbol></defs><path class="a" d="M0 0h80v54.275H0z"/><g style="animation-duration:50.389692s;animation-iteration-count:infinite;animation-name:k;animation-timing-function:steps(1,end)"><svg width="5680"><svg><use xlink:href="#a"/><use xlink:href="#b" x="-.004"/></svg><svg x="80"><use xlink:href="#a"/><use xlink:href="#b" x="-.004" y="4.317"/><use xlink:href="#1"/></svg><svg x="160"><use xlink:href="#a"/><use xlink:href="#b" x="1.996" y="4.317"/><use xlink:href="#1"/><use xlink:href="#2" y="4.342"/></svg><svg x="240"><use xlink:href="#a"/><use xlink:href="#b" x="2.996" y="4.317"/><use xlink:href="#1"/><text y="6.012" class="h">$</text><text x="2.004" y="6.012" class="h">.</text></svg><svg x="320"><use xlink:href="#a"/><use xlink:href="#b" x="3.996" y="4.317"/><use xlink:href="#1"/><text y="6.012" class="h">$</text><text x="2.004" y="6.012" class="h">./</text></svg><svg x="400"><use xlink:href="#a"/><use xlink:href="#b" x="4.996" y="4.317"/><use xlink:href="#1"/><text y="6.012" class="h">$</text><text x="2.004" y="6.012" class="h">./f</text></svg><svg x="480"><use xlink:href="#a"/><use xlink:href="#b" x="5.996" y="4.317"/><use xlink:href="#1"/><text y="6.012" class="h">$</text><text x="2.004" y="6.012" class="h">./ff</text></svg><svg x="560"><use xlink:href="#a"/><use xlink:href="#b" x="26.996" y="4.317"/><use xlink:href="#1"/><text y="6.012" class="h">$</text><text x="2.004" y="6.012" class="h">./ffmpeg-video-slicer.sh</text></svg><svg x="640"><use xlink:href="#a"/><use xlink:href="#b" x="27.996" y="4.317"/><use xlink:href="#1"/><text y="6.012" class="h">$</text><text x="2.004" y="6.012" class="h">./ffmpeg-video-slicer.sh</text><text x="27.054" y="6.012" class="h">-</text></svg><svg x="720"><use xlink:href="#a"/><use xlink:href="#b" x="28.996" y="4.317"/><use xlink:href="#1"/><use xlink:href="#3" y="4.342"/></svg><svg x="800"><use xlink:href="#a"/><use xlink:href="#b" x="29.996" y="4.317"/><use xlink:href="#1"/><use xlink:href="#3" y="4.342"/></svg><svg x="880"><use xlink:href="#a"/><use xlink:href="#b" x="30.996" y="4.317"/><use xlink:href="#1"/><text y="6.012" class="h">$</text><text x="2.004" y="6.012" class="h">./ffmpeg-video-slicer.sh</text><text x="27.054" y="6.012" class="h">-i</text><text x="30.06" y="6.012" class="h">i</text></svg><svg x="960"><use xlink:href="#a"/><use xlink:href="#b" x="31.996" y="4.317"/><use xlink:href="#1"/><text y="6.012" class="h">$</text><text x="2.004" y="6.012" class="h">./ffmpeg-video-slicer.sh</text><text x="27.054" y="6.012" class="h">-i</text><text x="30.06" y="6.012" class="h">in</text></svg><svg x="1040"><use xlink:href="#a"/><use xlink:href="#b" x="39.996" y="4.317"/><use xlink:href="#1"/><text y="6.012" class="h">$</text><text x="2.004" y="6.012" class="h">./ffmpeg-video-slicer.sh</text><text x="27.054" y="6.012" class="h">-i</text><text x="30.06" y="6.012" class="h">input.mp4</text></svg><svg x="1120"><use xlink:href="#a"/><use xlink:href="#b" x="40.996" y="4.317"/><use xlink:href="#1"/><text y="6.012" class="h">$</text><text x="2.004" y="6.012" class="h">./ffmpeg-video-slicer.sh</text><text x="27.054" y="6.012" class="h">-i</text><text x="30.06" y="6.012" class="h">input.mp4</text><text x="40.08" y="6.012" class="h">-</text></svg><svg x="1200"><use xlink:href="#a"/><use xlink:href="#b" x="41.996" y="4.317"/><use xlink:href="#1"/><use xlink:href="#4" y="4.342"/></svg><svg x="1280"><use xlink:href="#a"/><use xlink:href="#b" x="42.996" y="4.317"/><use xlink:href="#1"/><use xlink:href="#4" y="4.342"/></svg><svg x="1360"><use xlink:href="#a"/><use xlink:href="#b" x="43.996" y="4.317"/><use xlink:href="#1"/><text y="6.012" class="h">$</text><text x="2.004" y="6.012" class="h">./ffmpeg-video-slicer.sh</text><text x="27.054" y="6.012" class="h">-i</text><text x="30.06" y="6.012" class="h">input.mp4</text><text x="40.08" y="6.012" class="h">-s</text><text x="43.086" y="6.012" class="h">s</text></svg><svg x="1440"><use xlink:href="#a"/><use xlink:href="#b" x="44.996" y="4.317"/><use xlink:href="#1"/><text y="6.012" class="h">$</text><text x="2.004" y="6.012" class="h">./ffmpeg-video-slicer.sh</text><text x="27.054" y="6.012" class="h">-i</text><text x="30.06" y="6.012" class="h">input.mp4</text><text x="40.08" y="6.012" class="h">-s</text><text x="43.086" y="6.012" class="h">sc</text></svg><svg x="1520"><use xlink:href="#a"/><use xlink:href="#b" x="53.996" y="4.317"/><use xlink:href="#1"/><text y="6.012" class="h">$</text><text x="2.004" y="6.012" class="h">./ffmpeg-video-slicer.sh</text><text x="27.054" y="6.012" class="h">-i</text><text x="30.06" y="6.012" class="h">input.mp4</text><text x="40.08" y="6.012" class="h">-s</text><text x="43.086" y="6.012" class="h">scenes.txt</text></svg><svg x="1600"><use xlink:href="#a"/><use xlink:href="#b" x="54.996" y="4.317"/><use xlink:href="#1"/><text y="6.012" class="h">$</text><text x="2.004" y="6.012" class="h">./ffmpeg-video-slicer.sh</text><text x="27.054" y="6.012" class="h">-i</text><text x="30.06" y="6.012" class="h">input.mp4</text><text x="40.08" y="6.012" class="h">-s</text><text x="43.086" y="6.012" class="h">scenes.txt</text><text x="54.108" y="6.012" class="h">-</text></svg><svg x="1680"><use xlink:href="#a"/><use xlink:href="#b" x="55.996" y="4.317"/><use xlink:href="#1"/><use xlink:href="#5" y="4.342"/></svg><svg x="1760"><use xlink:href="#a"/><use xlink:href="#b" x="56.996" y="4.317"/><use xlink:href="#1"/><use xlink:href="#5" y="4.342"/></svg><svg x="1840"><use xlink:href="#a"/><use xlink:href="#b" x="57.996" y="4.317"/><use xlink:href="#1"/><text y="6.012" class="h">$</text><text x="2.004" y="6.012" class="h">./ffmpeg-video-slicer.sh</text><text x="27.054" y="6.012" class="h">-i</text><text x="30.06" y="6.012" class="h">input.mp4</text><text x="40.08" y="6.012" class="h">-s</text><text x="43.086" y="6.012" class="h">scenes.txt</text><text x="54.108" y="6.012" class="h">-o</text><text x="57.114" y="6.012" class="h">o</text></svg><svg x="1920"><use xlink:href="#a"/><use xlink:href="#b" x="58.996" y="4.317"/><use xlink:href="#1"/><text y="6.012" class="h">$</text><text x="2.004" y="6.012" class="h">./ffmpeg-video-slicer.sh</text><text x="27.054" y="6.012" class="h">-i</text><text x="30.06" y="6.012" class="h">input.mp4</text><text x="40.08" y="6.012" class="h">-s</text><text x="43.086" y="6.012" class="h">scenes.txt</text><text x="54.108" y="6.012" class="h">-o</text><text x="57.114" y="6.012" class="h">ou</text></svg><svg x="2000"><use xlink:href="#a"/><use xlink:href="#b" x="59.996" y="4.317"/><use xlink:href="#1"/><use xlink:href="#6" y="4.342"/></svg><svg x="2080"><use xlink:href="#a"/><use xlink:href="#b" x="59.996" y="4.317"/><use xlink:href="#1"/><use xlink:href="#6" y="4.342"/></svg><svg x="2160"><use xlink:href="#a"/><use xlink:href="#b" x="60.996" y="4.317"/><use xlink:href="#1"/><text y="6.012" class="h">$</text><text x="2.004" y="6.012" class="h">./ffmpeg-video-slicer.sh</text><text x="27.054" y="6.012" class="h">-i</text><text x="30.06" y="6.012" class="h">input.mp4</text><text x="40.08" y="6.012" class="h">-s</text><text x="43.086" y="6.012" class="h">scenes.txt</text><text x="54.108" y="6.012" class="h">-o</text><text x="57.114" y="6.012" class="h">outp</text></svg><svg x="2240"><use xlink:href="#a"/><use xlink:href="#b" x="61.996" y="4.317"/><use xlink:href="#1"/><text y="6.012" class="h">$</text><text x="2.004" y="6.012" class="h">./ffmpeg-video-slicer.sh</text><text x="27.054" y="6.012" class="h">-i</text><text x="30.06" y="6.012" class="h">input.mp4</text><text x="40.08" y="6.012" class="h">-s</text><text x="43.086" y="6.012" class="h">scenes.txt</text><text x="54.108" y="6.012" class="h">-o</text><text x="57.114" y="6.012" class="h">outpu</text></svg><svg x="2320"><use xlink:href="#a"/><use xlink:href="#b" x="62.996" y="4.317"/><use xlink:href="#1"/><text y="6.012" class="h">$</text><text x="2.004" y="6.012" class="h">./ffmpeg-video-slicer.sh</text><text x="27.054" y="6.012" class="h">-i</text><text x="30.06" y="6.012" class="h">input.mp4</text><text x="40.08" y="6.012" class="h">-s</text><text x="43.086" y="6.012" class="h">scenes.txt</text><text x="54.108" y="6.012" class="h">-o</text><text x="57.114" y="6.012" class="h">output</text></svg><svg x="2400"><use xlink:href="#a"/><use xlink:href="#b" x="63.996" y="4.317"/><use xlink:href="#1"/><text y="6.012" class="h">$</text><text x="2.004" y="6.012" class="h">./ffmpeg-video-slicer.sh</text><text x="27.054" y="6.012" class="h">-i</text><text x="30.06" y="6.012" class="h">input.mp4</text><text x="40.08" y="6.012" class="h">-s</text><text x="43.086" y="6.012" class="h">scenes.txt</text><text x="54.108" y="6.012" class="h">-o</text><text x="57.114" y="6.012" class="h">output-</text></svg><svg x="2480"><use xlink:href="#a"/><use xlink:href="#b" x="64.996" y="4.317"/><use xlink:href="#1"/><text y="6.012" class="h">$</text><text x="2.004" y="6.012" class="h">./ffmpeg-video-slicer.sh</text><text x="27.054" y="6.012" class="h">-i</text><text x="30.06" y="6.012" class="h">input.mp4</text><text x="40.08" y="6.012" class="h">-s</text><text x="43.086" y="6.012" class="h">scenes.txt</text><text x="54.108" y="6.012" class="h">-o</text><text x="57.114" y="6.012" class="h">output-%</text></svg><svg x="2560"><use xlink:href="#a"/><use xlink:href="#b" x="65.996" y="4.317"/><use xlink:href="#1"/><use xlink:href="#7" y="4.342"/></svg><svg x="2640"><use xlink:href="#a"/><use xlink:href="#b" x="66.996" y="4.317"/><use xlink:href="#1"/><text y="6.012" class="h">$</text><text x="2.004" y="6.012" class="h">./ffmpeg-video-slicer.sh</text><text x="27.054" y="6.012" class="h">-i</text><text x="30.06" y="6.012" class="h">input.mp4</text><text x="40.08" y="6.012" class="h">-s</text><text x="43.086" y="6.012" class="h">scenes.txt</text><text x="54.108" y="6.012" class="h">-o</text><text x="57.114" y="6.012" class="h">output-%0d</text></svg><svg x="2720"><use xlink:href="#a"/><use xlink:href="#b" x="65.996" y="4.317"/><use xlink:href="#1"/><use xlink:href="#7" y="4.342"/></svg><svg x="2800"><use xlink:href="#a"/><use xlink:href="#b" x="66.996" y="4.317"/><use xlink:href="#1"/><use xlink:href="#8" y="4.342"/></svg><svg x="2880"><use xlink:href="#a"/><use xlink:href="#b" x="67.996" y="4.317"/><use xlink:href="#1"/><text y="6.012" class="h">$</text><text x="2.004" y="6.012" class="h">./ffmpeg-video-slicer.sh</text><text x="27.054" y="6.012" class="h">-i</text><text x="30.06" y="6.012" class="h">input.mp4</text><text x="40.08" y="6.012" class="h">-s</text><text x="43.086" y="6.012" class="h">scenes.txt</text><text x="54.108" y="6.012" class="h">-o</text><text x="57.114" y="6.012" class="h">output-%03d</text></svg><svg x="2960"><use xlink:href="#a"/><use xlink:href="#b" x="66.996" y="4.317"/><use xlink:href="#1"/><use xlink:href="#8" y="4.342"/></svg><svg x="3040"><use xlink:href="#a"/><use xlink:href="#b" x="65.996" y="4.317"/><use xlink:href="#1"/><use xlink:href="#7" y="4.342"/></svg><svg x="3120"><use xlink:href="#a"/><use xlink:href="#b" x="66.996" y="4.317"/><use xlink:href="#1"/><text y="6.012" class="h">$</text><text x="2.004" y="6.012" class="h">./ffmpeg-video-slicer.sh</text><text x="27.054" y="6.012" class="h">-i</text><text x="30.06" y="6.012" class="h">input.mp4</text><text x="40.08" y="6.012" class="h">-s</text><text x="43.086" y="6.012" class="h">scenes.txt</text><text x="54.108" y="6.012" class="h">-o</text><text x="57.114" y="6.012" class="h">output-%02</text></svg><svg x="3200"><use xlink:href="#a"/><use xlink:href="#b" x="67.996" y="4.317"/><use xlink:href="#1"/><text y="6.012" class="h">$</text><text x="2.004" y="6.012" class="h">./ffmpeg-video-slicer.sh</text><text x="27.054" y="6.012" class="h">-i</text><text x="30.06" y="6.012" class="h">input.mp4</text><text x="40.08" y="6.012" class="h">-s</text><text x="43.086" y="6.012" class="h">scenes.txt</text><text x="54.108" y="6.012" class="h">-o</text><text x="57.114" y="6.012" class="h">output-%02d</text></svg><svg x="3280"><use xlink:href="#a"/><use xlink:href="#b" x="68.996" y="4.317"/><use xlink:href="#1"/><text y="6.012" class="h">$</text><text x="2.004" y="6.012" class="h">./ffmpeg-video-slicer.sh</text><text x="27.054" y="6.012" class="h">-i</text><text x="30.06" y="6.012" class="h">input.mp4</text><text x="40.08" y="6.012" class="h">-s</text><text x="43.086" y="6.012" class="h">scenes.txt</text><text x="54.108" y="6.012" class="h">-o</text><text x="57.114" y="6.012" class="h">output-%02d.</text></svg><svg x="3360"><use xlink:href="#a"/><use xlink:href="#b" x="69.996" y="4.317"/><use xlink:href="#1"/><text y="6.012" class="h">$</text><text x="2.004" y="6.012" class="h">./ffmpeg-video-slicer.sh</text><text x="27.054" y="6.012" class="h">-i</text><text x="30.06" y="6.012" class="h">input.mp4</text><text x="40.08" y="6.012" class="h">-s</text><text x="43.086" y="6.012" class="h">scenes.txt</text><text x="54.108" y="6.012" class="h">-o</text><text x="57.114" y="6.012" class="h">output-%02d.m</text></svg><svg x="3440"><use xlink:href="#a"/><use xlink:href="#b" x="70.996" y="4.317"/><use xlink:href="#1"/><text y="6.012" class="h">$</text><text x="2.004" y="6.012" class="h">./ffmpeg-video-slicer.sh</text><text x="27.054" y="6.012" class="h">-i</text><text x="30.06" y="6.012" class="h">input.mp4</text><text x="40.08" y="6.012" class="h">-s</text><text x="43.086" y="6.012" class="h">scenes.txt</text><text x="54.108" y="6.012" class="h">-o</text><text x="57.114" y="6.012" class="h">output-%02d.mp</text></svg><svg x="3520"><use xlink:href="#a"/><use xlink:href="#b" x="71.996" y="4.317"/><use xlink:href="#1"/><use xlink:href="#9" y="4.342"/></svg><svg x="3600"><use xlink:href="#a"/><use xlink:href="#b" x="-.004" y="6.488"/><use xlink:href="#1"/><use xlink:href="#9" y="4.342"/></svg><svg x="3680"><use xlink:href="#a"/><use xlink:href="#b" x="-.004" y="17.343"/><use xlink:href="#1"/><use xlink:href="#9" y="4.342"/><use xlink:href="#10" y="6.513"/><use xlink:href="#11" y="8.684"/><use xlink:href="#12" y="10.855"/><use xlink:href="#13" y="13.026"/><use xlink:href="#14" y="15.197"/></svg><svg x="3760"><use xlink:href="#a"/><use xlink:href="#b" x="-.004" y="21.685"/><use xlink:href="#1"/><use xlink:href="#9" y="4.342"/><use xlink:href="#10" y="6.513"/><use xlink:href="#11" y="8.684"/><use xlink:href="#12" y="10.855"/><use xlink:href="#13" y="13.026"/><use xlink:href="#14" y="15.197"/><use xlink:href="#15" y="17.368"/><use xlink:href="#16" y="19.539"/></svg><svg x="3840"><use xlink:href="#a"/><use xlink:href="#b" x="-.004" y="36.882"/><use xlink:href="#1"/><use xlink:href="#9" y="4.342"/><use xlink:href="#10" y="6.513"/><use xlink:href="#11" y="8.684"/><use xlink:href="#12" y="10.855"/><use xlink:href="#13" y="13.026"/><use xlink:href="#14" y="15.197"/><use xlink:href="#15" y="17.368"/><use xlink:href="#16" y="19.539"/><use xlink:href="#17" y="21.71"/><use xlink:href="#18" y="23.881"/><use xlink:href="#19" y="26.052"/><use xlink:href="#20" y="28.223"/><use xlink:href="#21" y="30.394"/><use xlink:href="#22" y="32.565"/><use xlink:href="#23" y="34.736"/></svg><svg x="3920"><use xlink:href="#a"/><use xlink:href="#b" x="-.004" y="41.224"/><use xlink:href="#1"/><use xlink:href="#9" y="4.342"/><use xlink:href="#10" y="6.513"/><use xlink:href="#11" y="8.684"/><use xlink:href="#12" y="10.855"/><use xlink:href="#13" y="13.026"/><use xlink:href="#14" y="15.197"/><use xlink:href="#15" y="17.368"/><use xlink:href="#16" y="19.539"/><use xlink:href="#17" y="21.71"/><use xlink:href="#18" y="23.881"/><use xlink:href="#19" y="26.052"/><use xlink:href="#20" y="28.223"/><use xlink:href="#21" y="30.394"/><use xlink:href="#22" y="32.565"/><use xlink:href="#23" y="34.736"/><use xlink:href="#24" y="36.907"/><use xlink:href="#25" y="39.078"/></svg><svg x="4000"><use xlink:href="#a"/><use xlink:href="#b" x="-.004" y="43.395"/><use xlink:href="#1"/><use xlink:href="#9" y="4.342"/><use xlink:href="#10" y="6.513"/><use xlink:href="#11" y="8.684"/><use xlink:href="#12" y="10.855"/><use xlink:href="#13" y="13.026"/><use xlink:href="#14" y="15.197"/><use xlink:href="#15" y="17.368"/><use xlink:href="#16" y="19.539"/><use xlink:href="#17" y="21.71"/><use xlink:href="#18" y="23.881"/><use xlink:href="#19" y="26.052"/><use xlink:href="#20" y="28.223"/><use xlink:href="#21" y="30.394"/><use xlink:href="#22" y="32.565"/><use xlink:href="#23" y="34.736"/><use xlink:href="#24" y="36.907"/><use xlink:href="#25" y="39.078"/><use xlink:href="#26" y="41.249"/></svg><svg x="4080"><use xlink:href="#a"/><use xlink:href="#b" x="-.004" y="45.566"/><use xlink:href="#1"/><use xlink:href="#9" y="4.342"/><use xlink:href="#10" y="6.513"/><use xlink:href="#11" y="8.684"/><use xlink:href="#12" y="10.855"/><use xlink:href="#13" y="13.026"/><use xlink:href="#14" y="15.197"/><use xlink:href="#15" y="17.368"/><use xlink:href="#16" y="19.539"/><use xlink:href="#17" y="21.71"/><use xlink:href="#18" y="23.881"/><use xlink:href="#19" y="26.052"/><use xlink:href="#20" y="28.223"/><use xlink:href="#21" y="30.394"/><use xlink:href="#22" y="32.565"/><use xlink:href="#23" y="34.736"/><use xlink:href="#24" y="36.907"/><use xlink:href="#25" y="39.078"/><use xlink:href="#26" y="41.249"/><use xlink:href="#27" y="43.42"/></svg><svg x="4160"><use xlink:href="#a"/><use xlink:href="#b" x="-.004" y="49.908"/><use xlink:href="#1"/><use xlink:href="#9" y="4.342"/><use xlink:href="#10" y="6.513"/><use xlink:href="#11" y="8.684"/><use xlink:href="#12" y="10.855"/><use xlink:href="#13" y="13.026"/><use xlink:href="#14" y="15.197"/><use xlink:href="#15" y="17.368"/><use xlink:href="#16" y="19.539"/><use xlink:href="#17" y="21.71"/><use xlink:href="#18" y="23.881"/><use xlink:href="#19" y="26.052"/><use xlink:href="#20" y="28.223"/><use xlink:href="#21" y="30.394"/><use xlink:href="#22" y="32.565"/><use xlink:href="#23" y="34.736"/><use xlink:href="#24" y="36.907"/><use xlink:href="#25" y="39.078"/><use xlink:href="#26" y="41.249"/><use xlink:href="#27" y="43.42"/><use xlink:href="#28" y="45.591"/><use xlink:href="#29" y="47.762"/></svg><svg x="4240"><use xlink:href="#a"/><use xlink:href="#b" x="-.004" y="52.079"/><use xlink:href="#1"/><use xlink:href="#9" y="4.342"/><use xlink:href="#10" y="6.513"/><use xlink:href="#11" y="8.684"/><use xlink:href="#12" y="10.855"/><use xlink:href="#13" y="13.026"/><use xlink:href="#14" y="15.197"/><use xlink:href="#15" y="17.368"/><use xlink:href="#16" y="19.539"/><use xlink:href="#17" y="21.71"/><use xlink:href="#18" y="23.881"/><use xlink:href="#19" y="26.052"/><use xlink:href="#20" y="28.223"/><use xlink:href="#21" y="30.394"/><use xlink:href="#22" y="32.565"/><use xlink:href="#23" y="34.736"/><use xlink:href="#24" y="36.907"/><use xlink:href="#25" y="39.078"/><use xlink:href="#26" y="41.249"/><use xlink:href="#27" y="43.42"/><use xlink:href="#28" y="45.591"/><use xlink:href="#29" y="47.762"/><use xlink:href="#30" y="49.933"/></svg><svg x="4320"><use xlink:href="#a"/><use xlink:href="#b" x="-.004" y="54.25"/><use xlink:href="#1"/><use xlink:href="#9" y="4.342"/><use xlink:href="#10" y="6.513"/><use xlink:href="#11" y="8.684"/><use xlink:href="#12" y="10.855"/><use xlink:href="#13" y="13.026"/><use xlink:href="#14" y="15.197"/><use xlink:href="#15" y="17.368"/><use xlink:href="#16" y="19.539"/><use xlink:href="#17" y="21.71"/><use xlink:href="#18" y="23.881"/><use xlink:href="#19" y="26.052"/><use xlink:href="#20" y="28.223"/><use xlink:href="#21" y="30.394"/><use xlink:href="#22" y="32.565"/><use xlink:href="#23" y="34.736"/><use xlink:href="#24" y="36.907"/><use xlink:href="#25" y="39.078"/><use xlink:href="#26" y="41.249"/><use xlink:href="#27" y="43.42"/><use xlink:href="#28" y="45.591"/><use xlink:href="#29" y="47.762"/><use xlink:href="#30" y="49.933"/><use xlink:href="#31" y="52.104"/></svg><svg x="4400"><use xlink:href="#a"/><use xlink:href="#b" x="-.004" y="54.25"/><use xlink:href="#9"/><use xlink:href="#10" y="2.171"/><use xlink:href="#11" y="4.342"/><use xlink:href="#12" y="6.513"/><use xlink:href="#13" y="8.684"/><use xlink:href="#14" y="10.855"/><use xlink:href="#15" y="13.026"/><use xlink:href="#16" y="15.197"/><use xlink:href="#17" y="17.368"/><use xlink:href="#18" y="19.539"/><use xlink:href="#19" y="21.71"/><use xlink:href="#20" y="23.881"/><use xlink:href="#21" y="26.052"/><use xlink:href="#22" y="28.223"/><use xlink:href="#23" y="30.394"/><use xlink:href="#24" y="32.565"/><use xlink:href="#25" y="34.736"/><use xlink:href="#26" y="36.907"/><use xlink:href="#27" y="39.078"/><use xlink:href="#28" y="41.249"/><use xlink:href="#29" y="43.42"/><use xlink:href="#30" y="45.591"/><use xlink:href="#31" y="47.762"/><use xlink:href="#32" y="49.933"/><use xlink:href="#33" y="52.104"/></svg><svg x="4480"><use xlink:href="#a"/><use xlink:href="#b" x="-.004" y="54.25"/><use xlink:href="#10"/><use xlink:href="#11" y="2.171"/><use xlink:href="#12" y="4.342"/><use xlink:href="#13" y="6.513"/><use xlink:href="#14" y="8.684"/><use xlink:href="#15" y="10.855"/><use xlink:href="#16" y="13.026"/><use xlink:href="#17" y="15.197"/><use xlink:href="#18" y="17.368"/><use xlink:href="#19" y="19.539"/><use xlink:href="#20" y="21.71"/><use xlink:href="#21" y="23.881"/><use xlink:href="#22" y="26.052"/><use xlink:href="#23" y="28.223"/><use xlink:href="#24" y="30.394"/><use xlink:href="#25" y="32.565"/><use xlink:href="#26" y="34.736"/><use xlink:href="#27" y="36.907"/><use xlink:href="#28" y="39.078"/><use xlink:href="#29" y="41.249"/><use xlink:href="#30" y="43.42"/><use xlink:href="#31" y="45.591"/><use xlink:href="#32" y="47.762"/><use xlink:href="#33" y="49.933"/><use xlink:href="#34" y="52.104"/></svg><svg x="4560"><use xlink:href="#a"/><use xlink:href="#b" x="-.004" y="54.25"/><use xlink:href="#11"/><use xlink:href="#12" y="2.171"/><use xlink:href="#13" y="4.342"/><use xlink:href="#14" y="6.513"/><use xlink:href="#15" y="8.684"/><use xlink:href="#16" y="10.855"/><use xlink:href="#17" y="13.026"/><use xlink:href="#18" y="15.197"/><use xlink:href="#19" y="17.368"/><use xlink:href="#20" y="19.539"/><use xlink:href="#21" y="21.71"/><use xlink:href="#22" y="23.881"/><use xlink:href="#23" y="26.052"/><use xlink:href="#24" y="28.223"/><use xlink:href="#25" y="30.394"/><use xlink:href="#26" y="32.565"/><use xlink:href="#27" y="34.736"/><use xlink:href="#28" y="36.907"/><use xlink:href="#29" y="39.078"/><use xlink:href="#30" y="41.249"/><use xlink:href="#31" y="43.42"/><use xlink:href="#32" y="45.591"/><use xlink:href="#33" y="47.762"/><use xlink:href="#34" y="49.933"/><use xlink:href="#35" y="52.104"/></svg><svg x="4640"><use xlink:href="#a"/><use xlink:href="#b" x="-.004" y="54.25"/><use xlink:href="#13"/><use xlink:href="#14" y="2.171"/><use xlink:href="#15" y="4.342"/><use xlink:href="#16" y="6.513"/><use xlink:href="#17" y="8.684"/><use xlink:href="#18" y="10.855"/><use xlink:href="#19" y="13.026"/><use xlink:href="#20" y="15.197"/><use xlink:href="#21" y="17.368"/><use xlink:href="#22" y="19.539"/><use xlink:href="#23" y="21.71"/><use xlink:href="#24" y="23.881"/><use xlink:href="#25" y="26.052"/><use xlink:href="#26" y="28.223"/><use xlink:href="#27" y="30.394"/><use xlink:href="#28" y="32.565"/><use xlink:href="#29" y="34.736"/><use xlink:href="#30" y="36.907"/><use xlink:href="#31" y="39.078"/><use xlink:href="#32" y="41.249"/><use xlink:href="#33" y="43.42"/><use xlink:href="#34" y="45.591"/><use xlink:href="#35" y="47.762"/><use xlink:href="#36" y="49.933"/><use xlink:href="#37" y="52.104"/></svg><svg x="4720"><use xlink:href="#a"/><use xlink:href="#b" x="-.004" y="54.25"/><use xlink:href="#14"/><use xlink:href="#15" y="2.171"/><use xlink:href="#16" y="4.342"/><use xlink:href="#17" y="6.513"/><use xlink:href="#18" y="8.684"/><use xlink:href="#19" y="10.855"/><use xlink:href="#20" y="13.026"/><use xlink:href="#21" y="15.197"/><use xlink:href="#22" y="17.368"/><use xlink:href="#23" y="19.539"/><use xlink:href="#24" y="21.71"/><use xlink:href="#25" y="23.881"/><use xlink:href="#26" y="26.052"/><use xlink:href="#27" y="28.223"/><use xlink:href="#28" y="30.394"/><use xlink:href="#29" y="32.565"/><use xlink:href="#30" y="34.736"/><use xlink:href="#31" y="36.907"/><use xlink:href="#32" y="39.078"/><use xlink:href="#33" y="41.249"/><use xlink:href="#34" y="43.42"/><use xlink:href="#35" y="45.591"/><use xlink:href="#36" y="47.762"/><use xlink:href="#37" y="49.933"/><use xlink:href="#38" y="52.104"/></svg><svg x="4800"><use xlink:href="#a"/><use xlink:href="#b" x="-.004" y="54.25"/><use xlink:href="#15"/><use xlink:href="#16" y="2.171"/><use xlink:href="#17" y="4.342"/><use xlink:href="#18" y="6.513"/><use xlink:href="#19" y="8.684"/><use xlink:href="#20" y="10.855"/><use xlink:href="#21" y="13.026"/><use xlink:href="#22" y="15.197"/><use xlink:href="#23" y="17.368"/><use xlink:href="#24" y="19.539"/><use xlink:href="#25" y="21.71"/><use xlink:href="#26" y="23.881"/><use xlink:href="#27" y="26.052"/><use xlink:href="#28" y="28.223"/><use xlink:href="#29" y="30.394"/><use xlink:href="#30" y="32.565"/><use xlink:href="#31" y="34.736"/><use xlink:href="#32" y="36.907"/><use xlink:href="#33" y="39.078"/><use xlink:href="#34" y="41.249"/><use xlink:href="#35" y="43.42"/><use xlink:href="#36" y="45.591"/><use xlink:href="#37" y="47.762"/><use xlink:href="#38" y="49.933"/><use xlink:href="#39" y="52.104"/></svg><svg x="4880"><use xlink:href="#a"/><use xlink:href="#b" x="-.004" y="54.25"/><use xlink:href="#17"/><use xlink:href="#18" y="2.171"/><use xlink:href="#19" y="4.342"/><use xlink:href="#20" y="6.513"/><use xlink:href="#21" y="8.684"/><use xlink:href="#22" y="10.855"/><use xlink:href="#23" y="13.026"/><use xlink:href="#24" y="15.197"/><use xlink:href="#25" y="17.368"/><use xlink:href="#26" y="19.539"/><use xlink:href="#27" y="21.71"/><use xlink:href="#28" y="23.881"/><use xlink:href="#29" y="26.052"/><use xlink:href="#30" y="28.223"/><use xlink:href="#31" y="30.394"/><use xlink:href="#32" y="32.565"/><use xlink:href="#33" y="34.736"/><use xlink:href="#34" y="36.907"/><use xlink:href="#35" y="39.078"/><use xlink:href="#36" y="41.249"/><use xlink:href="#37" y="43.42"/><use xlink:href="#38" y="45.591"/><use xlink:href="#39" y="47.762"/><use xlink:href="#40" y="49.933"/><use xlink:href="#41" y="52.104"/></svg><svg x="4960"><use xlink:href="#a"/><use xlink:href="#b" x="-.004" y="54.25"/><use xlink:href="#18"/><use xlink:href="#19" y="2.171"/><use xlink:href="#20" y="4.342"/><use xlink:href="#21" y="6.513"/><use xlink:href="#22" y="8.684"/><use xlink:href="#23" y="10.855"/><use xlink:href="#24" y="13.026"/><use xlink:href="#25" y="15.197"/><use xlink:href="#26" y="17.368"/><use xlink:href="#27" y="19.539"/><use xlink:href="#28" y="21.71"/><use xlink:href="#29" y="23.881"/><use xlink:href="#30" y="26.052"/><use xlink:href="#31" y="28.223"/><use xlink:href="#32" y="30.394"/><use xlink:href="#33" y="32.565"/><use xlink:href="#34" y="34.736"/><use xlink:href="#35" y="36.907"/><use xlink:href="#36" y="39.078"/><use xlink:href="#37" y="41.249"/><use xlink:href="#38" y="43.42"/><use xlink:href="#39" y="45.591"/><use xlink:href="#40" y="47.762"/><use xlink:href="#41" y="49.933"/><use xlink:href="#42" y="52.104"/></svg><svg x="5040"><use xlink:href="#a"/><use xlink:href="#b" x="-.004" y="54.25"/><use xlink:href="#19"/><use xlink:href="#20" y="2.171"/><use xlink:href="#21" y="4.342"/><use xlink:href="#22" y="6.513"/><use xlink:href="#23" y="8.684"/><use xlink:href="#24" y="10.855"/><use xlink:href="#25" y="13.026"/><use xlink:href="#26" y="15.197"/><use xlink:href="#27" y="17.368"/><use xlink:href="#28" y="19.539"/><use xlink:href="#29" y="21.71"/><use xlink:href="#30" y="23.881"/><use xlink:href="#31" y="26.052"/><use xlink:href="#32" y="28.223"/><use xlink:href="#33" y="30.394"/><use xlink:href="#34" y="32.565"/><use xlink:href="#35" y="34.736"/><use xlink:href="#36" y="36.907"/><use xlink:href="#37" y="39.078"/><use xlink:href="#38" y="41.249"/><use xlink:href="#39" y="43.42"/><use xlink:href="#40" y="45.591"/><use xlink:href="#41" y="47.762"/><use xlink:href="#42" y="49.933"/><use xlink:href="#43" y="52.104"/></svg><svg x="5120"><use xlink:href="#a"/><use xlink:href="#b" x="-.004" y="54.25"/><use xlink:href="#21"/><use xlink:href="#22" y="2.171"/><use xlink:href="#23" y="4.342"/><use xlink:href="#24" y="6.513"/><use xlink:href="#25" y="8.684"/><use xlink:href="#26" y="10.855"/><use xlink:href="#27" y="13.026"/><use xlink:href="#28" y="15.197"/><use xlink:href="#29" y="17.368"/><use xlink:href="#30" y="19.539"/><use xlink:href="#31" y="21.71"/><use xlink:href="#32" y="23.881"/><use xlink:href="#33" y="26.052"/><use xlink:href="#34" y="28.223"/><use xlink:href="#35" y="30.394"/><use xlink:href="#36" y="32.565"/><use xlink:href="#37" y="34.736"/><use xlink:href="#38" y="36.907"/><use xlink:href="#39" y="39.078"/><use xlink:href="#40" y="41.249"/><use xlink:href="#41" y="43.42"/><use xlink:href="#42" y="45.591"/><use xlink:href="#43" y="47.762"/><use xlink:href="#44" y="49.933"/><use xlink:href="#45" y="52.104"/></svg><svg x="5200"><use xlink:href="#a"/><use xlink:href="#b" x="-.004" y="54.25"/><use xlink:href="#22"/><use xlink:href="#23" y="2.171"/><use xlink:href="#24" y="4.342"/><use xlink:href="#25" y="6.513"/><use xlink:href="#26" y="8.684"/><use xlink:href="#27" y="10.855"/><use xlink:href="#28" y="13.026"/><use xlink:href="#29" y="15.197"/><use xlink:href="#30" y="17.368"/><use xlink:href="#31" y="19.539"/><use xlink:href="#32" y="21.71"/><use xlink:href="#33" y="23.881"/><use xlink:href="#34" y="26.052"/><use xlink:href="#35" y="28.223"/><use xlink:href="#36" y="30.394"/><use xlink:href="#37" y="32.565"/><use xlink:href="#38" y="34.736"/><use xlink:href="#39" y="36.907"/><use xlink:href="#40" y="39.078"/><use xlink:href="#41" y="41.249"/><use xlink:href="#42" y="43.42"/><use xlink:href="#43" y="45.591"/><use xlink:href="#44" y="47.762"/><use xlink:href="#45" y="49.933"/><use xlink:href="#46" y="52.104"/></svg><svg x="5280"><use xlink:href="#a"/><use xlink:href="#b" x="-.004" y="54.25"/><use xlink:href="#23"/><use xlink:href="#24" y="2.171"/><use xlink:href="#25" y="4.342"/><use xlink:href="#26" y="6.513"/><use xlink:href="#27" y="8.684"/><use xlink:href="#28" y="10.855"/><use xlink:href="#29" y="13.026"/><use xlink:href="#30" y="15.197"/><use xlink:href="#31" y="17.368"/><use xlink:href="#32" y="19.539"/><use xlink:href="#33" y="21.71"/><use xlink:href="#34" y="23.881"/><use xlink:href="#35" y="26.052"/><use xlink:href="#36" y="28.223"/><use xlink:href="#37" y="30.394"/><use xlink:href="#38" y="32.565"/><use xlink:href="#39" y="34.736"/><use xlink:href="#40" y="36.907"/><use xlink:href="#41" y="39.078"/><use xlink:href="#42" y="41.249"/><use xlink:href="#43" y="43.42"/><use xlink:href="#44" y="45.591"/><use xlink:href="#45" y="47.762"/><use xlink:href="#46" y="49.933"/><use xlink:href="#47" y="52.104"/></svg><svg x="5360"><use xlink:href="#a"/><use xlink:href="#b" x="-.004" y="54.25"/><use xlink:href="#24"/><use xlink:href="#25" y="2.171"/><use xlink:href="#26" y="4.342"/><use xlink:href="#27" y="6.513"/><use xlink:href="#28" y="8.684"/><use xlink:href="#29" y="10.855"/><use xlink:href="#30" y="13.026"/><use xlink:href="#31" y="15.197"/><use xlink:href="#32" y="17.368"/><use xlink:href="#33" y="19.539"/><use xlink:href="#34" y="21.71"/><use xlink:href="#35" y="23.881"/><use xlink:href="#36" y="26.052"/><use xlink:href="#37" y="28.223"/><use xlink:href="#38" y="30.394"/><use xlink:href="#39" y="32.565"/><use xlink:href="#40" y="34.736"/><use xlink:href="#41" y="36.907"/><use xlink:href="#42" y="39.078"/><use xlink:href="#43" y="41.249"/><use xlink:href="#44" y="43.42"/><use xlink:href="#45" y="45.591"/><use xlink:href="#46" y="47.762"/><use xlink:href="#47" y="49.933"/><use xlink:href="#48" y="52.104"/></svg><svg x="5440"><use xlink:href="#a"/><use xlink:href="#b" x="-.004" y="54.25"/><use xlink:href="#26"/><use xlink:href="#27" y="2.171"/><use xlink:href="#28" y="4.342"/><use xlink:href="#29" y="6.513"/><use xlink:href="#30" y="8.684"/><use xlink:href="#31" y="10.855"/><use xlink:href="#32" y="13.026"/><use xlink:href="#33" y="15.197"/><use xlink:href="#34" y="17.368"/><use xlink:href="#35" y="19.539"/><use xlink:href="#36" y="21.71"/><use xlink:href="#37" y="23.881"/><use xlink:href="#38" y="26.052"/><use xlink:href="#39" y="28.223"/><use xlink:href="#40" y="30.394"/><use xlink:href="#41" y="32.565"/><use xlink:href="#42" y="34.736"/><use xlink:href="#43" y="36.907"/><use xlink:href="#44" y="39.078"/><use xlink:href="#45" y="41.249"/><use xlink:href="#46" y="43.42"/><use xlink:href="#47" y="45.591"/><use xlink:href="#48" y="47.762"/><use xlink:href="#1" y="49.933"/></svg><svg x="5520"><use xlink:href="#a"/><use xlink:href="#b" x="1.996" y="54.25"/><use xlink:href="#26"/><use xlink:href="#27" y="2.171"/><use xlink:href="#28" y="4.342"/><use xlink:href="#29" y="6.513"/><use xlink:href="#30" y="8.684"/><use xlink:href="#31" y="10.855"/><use xlink:href="#32" y="13.026"/><use xlink:href="#33" y="15.197"/><use xlink:href="#34" y="17.368"/><use xlink:href="#35" y="19.539"/><use xlink:href="#36" y="21.71"/><use xlink:href="#37" y="23.881"/><use xlink:href="#38" y="26.052"/><use xlink:href="#39" y="28.223"/><use xlink:href="#40" y="30.394"/><use xlink:href="#41" y="32.565"/><use xlink:href="#42" y="34.736"/><use xlink:href="#43" y="36.907"/><use xlink:href="#44" y="39.078"/><use xlink:href="#45" y="41.249"/><use xlink:href="#46" y="43.42"/><use xlink:href="#47" y="45.591"/><use xlink:href="#48" y="47.762"/><use xlink:href="#1" y="49.933"/><use xlink:href="#2" y="54.275"/></svg><svg x="5600"><use xlink:href="#a"/><use xlink:href="#b" x="-.004" y="54.25"/><use xlink:href="#27"/><use xlink:href="#28" y="2.171"/><use xlink:href="#29" y="4.342"/><use xlink:href="#30" y="6.513"/><use xlink:href="#31" y="8.684"/><use xlink:href="#32" y="10.855"/><use xlink:href="#33" y="13.026"/><use xlink:href="#34" y="15.197"/><use xlink:href="#35" y="17.368"/><use xlink:href="#36" y="19.539"/><use xlink:href="#37" y="21.71"/><use xlink:href="#38" y="23.881"/><use xlink:href="#39" y="26.052"/><use xlink:href="#40" y="28.223"/><use xlink:href="#41" y="30.394"/><use xlink:href="#42" y="32.565"/><use xlink:href="#43" y="34.736"/><use xlink:href="#44" y="36.907"/><use xlink:href="#45" y="39.078"/><use xlink:href="#46" y="41.249"/><use xlink:href="#47" y="43.42"/><use xlink:href="#48" y="45.591"/><use xlink:href="#1" y="47.762"/><use xlink:href="#2" y="52.104"/></svg></svg></g></g></svg></svg>